[img]http://img829.imageshack.us/img829/644/tipgyb3.png[/img]

[img]http://img839.imageshack.us/img839/2576/tipgyb2.png[/img]

[code]General
Complete name                    : T.I. ft Keri Hilson - Got Your Back [KingPinVideos].mpg
Format                           : MPEG-PS
File size                        : 80.9 MiB
Duration                         : 3mn 52s
Overall bit rate                 : 2 920 Kbps
Writing library                  : encoded by TMPGEnc 4.0 XPress Version. 4.7.4.299

Video
ID                               : 224 (0xE0)
Format                           : MPEG Video
Format version                   : Version 1
Format settings, BVOP            : Yes
Format settings, Matrix          : Default
Duration                         : 3mn 52s
Bit rate mode                    : Constant
Bit rate                         : 2 613 Kbps
Nominal bit rate                 : 2 700 Kbps
Width                            : 384 pixels
Height                           : 208 pixels
Display aspect ratio             : 16:9
Frame rate                       : 29.970 fps
Resolution                       : 8 bits
Scan type                        : Progressive
Bits/(Pixel*Frame)               : 1.091
Stream size                      : 72.4 MiB (89%)
Writing library                  : TMPGEnc XPress 4.7.4.299

Audio
ID                               : 192 (0xC0)
Format                           : MPEG Audio
Format version                   : Version 1
Format profile                   : Layer 2
Duration                         : 3mn 52s
Bit rate mode                    : Constant
Bit rate                         : 192 Kbps
Channel(s)                       : 2 channels
Sampling rate                    : 48.0 KHz
Stream size                      : 5.32 MiB (7%)
[/code]